<?xml version="1.0" encoding="UTF-8"?>
<svg width="83" height="35" viewBox="0 0 83 35" fill="none" xmlns="http://www.w3.org/2000/svg">
<g clip-path="url(#clip0_15641_1740)">
<path d="M0.746094 0.6875V34.6875H82.7461V7.56978L75.8565 0.6875H0.746094Z" fill="black"></path>
<path d="M27.9586 7.91209V12.4246H17.1678V15.9332H26.9537V20.4457H17.1678V27.4629H11.8993V7.91209H27.9586Z" fill="white"></path>
<path d="M30.2156 7.91209H40.3276C47.4775 7.91209 49.2601 9.86717 49.2601 17.6875C49.2601 25.5078 47.4775 27.4629 40.3276 27.4629H30.2156V7.91209ZM35.4611 17.6875L35.4874 22.9504H39.7774C43.3392 22.9504 43.7411 22.4238 43.7411 17.6875C43.7411 12.9512 43.3392 12.4246 39.7774 12.4246H35.4874L35.4611 17.6875Z" fill="white"></path>
<path d="M71.5929 27.4629H65.5698L64.5154 23.6515H56.9866L55.807 27.4629H50.1365L56.5846 7.91209H65.3161L71.5896 27.4629H71.5929ZM63.2107 19.3924L60.8779 12.1744H60.7263L58.3408 19.3924H63.2074H63.2107Z" fill="white"></path>
</g>
<defs>
<clipPath id="clip0_15641_1740">
<rect width="82" height="34" fill="white" transform="translate(0.746094 0.6875)"></rect>
</clipPath>
</defs>
</svg>