<?xml version="1.0" encoding="UTF-8"?>
<svg width="96" height="43" viewBox="0 0 96 43" fill="none" xmlns="http://www.w3.org/2000/svg">
<g clip-path="url(#clip0_2191_971)">
<path d="M12.9026 18.9679V23.7798H5.16468C5.29338 24.8962 5.60376 25.9185 6.01351 26.9058C7.39417 30.2292 9.69179 32.7096 12.8837 34.3623C13.0294 34.4383 13.1988 34.6471 13.2007 34.7971C13.2224 36.3947 13.213 37.9924 13.2101 39.59C13.2101 39.6498 13.1865 39.7096 13.16 39.8396C10.1867 38.8401 7.62601 37.231 5.47128 34.9974C2.18951 31.5971 0.331915 27.52 0.0395081 22.7954C-0.602085 12.4113 6.59265 5.18448 13.1846 3.22803C13.1969 3.37137 13.2187 3.50711 13.2187 3.64381C13.2187 5.13037 13.2092 6.61789 13.2205 8.10445C13.2234 8.41581 13.1079 8.56105 12.8326 8.70629C8.80037 10.8289 6.28983 14.1371 5.24512 18.5749C5.23092 18.6357 5.22997 18.7003 5.22903 18.7639C5.22808 18.8104 5.23565 18.8578 5.24512 18.967H12.9026V18.9679Z" fill="black"></path>
<path d="M26.0346 3.37109C27.3755 3.85143 28.5764 4.45422 29.7508 5.13674C30.3271 5.47184 30.5097 5.8544 30.5078 6.51889C30.487 14.2707 30.5012 22.0224 30.5059 29.7733C30.5059 29.9726 30.5059 30.1729 30.5674 30.3827C33.1016 27.2112 34.0612 23.5916 33.5975 19.5201C34.2665 19.5201 34.8769 19.5201 35.4872 19.5201C36.3701 19.5201 37.254 19.5372 38.1359 19.5135C38.4984 19.504 38.6205 19.6113 38.6422 19.9843C38.9791 25.6952 37.2597 30.6665 33.3458 34.8481C31.4087 36.9175 29.0884 38.4306 26.4756 39.5014C26.3498 39.5527 26.2125 39.5764 26.0337 39.6258V3.37109H26.0346Z" fill="black"></path>
<path d="M21.8899 40.732C20.9266 40.7747 20.02 40.8297 19.1116 40.8506C18.6403 40.8611 18.1672 40.7918 17.695 40.7937C17.3363 40.7956 17.2284 40.6446 17.2512 40.3048C17.2758 39.9422 17.2559 39.5777 17.2559 39.2141C17.2559 28.7255 17.2568 18.237 17.2578 7.74943C17.2578 7.62698 17.2578 7.50452 17.2578 7.24822C16.2112 7.51022 15.2318 7.75513 14.2022 8.01238C14.2022 7.28619 14.2022 6.57898 14.2022 5.87082C14.2022 4.98515 14.2135 4.09852 14.1974 3.21285C14.1927 2.93946 14.2826 2.83124 14.5476 2.76574C17.942 1.92659 21.3203 1.96266 24.6825 2.93566C24.8121 2.97363 24.9985 3.13881 25.0004 3.24608C25.0203 4.88927 25.0146 6.53246 25.0146 8.22597C23.9708 7.9222 22.9716 7.63077 21.8899 7.31467V40.732Z" fill="black"></path>
</g>
<g clip-path="url(#clip1_2191_971)">
<path d="M94.3624 22.8954L95.3209 21.8265L95.6869 21.4141L95.3151 21.0074L94.3508 19.9443L95.135 18.7477L95.4371 18.2887L95.0072 17.9402L93.8976 17.034L94.496 15.7327L94.7225 15.2331L94.2462 14.9543L93.0147 14.2282L93.4097 12.8514L93.5607 12.3228L93.0495 12.1194L91.7192 11.585L91.9051 10.1618L91.9748 9.61572L91.4404 9.48791L90.0462 9.15679L90.0171 7.72194L90.0055 7.17007L89.4595 7.1236L88.0304 7.00161L87.7922 5.58999L87.6993 5.04393L87.1474 5.07879L85.7184 5.17173L85.2711 3.8124L85.0968 3.28957L84.5566 3.40576L83.1566 3.70783L82.5059 2.42982L82.2562 1.94186L81.7391 2.13937L80.403 2.65057L79.5723 1.48293L79.2528 1.03563L78.7707 1.30866L77.5217 2.01157L76.5284 0.97754L76.1449 0.58252L75.7093 0.919449L74.5765 1.80244L73.4379 0.931067L73.0022 0.594138L72.6246 0.994968L71.6371 2.0348L70.3823 1.34352L69.9001 1.0763L69.5864 1.52941L68.7674 2.70285L67.4254 2.20908L66.9084 2.01737L66.6645 2.51115L66.0313 3.79497L64.6254 3.50451L64.0852 3.39414L63.9167 3.91696L63.4811 5.2821L62.052 5.20078L61.5001 5.17173L61.413 5.71779L61.1864 7.12941L59.7574 7.26302L59.2113 7.3153V7.86717L59.1881 9.30202L57.7997 9.64476L57.2653 9.77837L57.3408 10.3244L57.5383 11.7419L56.2138 12.2937L55.7026 12.5029L55.8595 13.0315L56.2661 14.4082L55.0404 15.1518L54.5698 15.4365L54.8022 15.936L55.4122 17.2315L54.3084 18.1493L53.8844 18.5037L54.1923 18.9626L54.9881 20.1535L54.0354 21.2224L53.6694 21.6348L54.0412 22.0414L55.0055 23.1045L54.2213 24.307L53.9192 24.7659L54.3491 25.1145L55.4586 26.0207L54.8603 27.3219L54.6337 27.8215L55.1101 28.1004L56.3474 28.8265L55.9524 30.2033L55.8014 30.7319L56.3126 30.9352L57.6429 31.4697L57.457 32.8929L57.3873 33.439L57.9217 33.5668L59.3159 33.8979L59.345 35.3269L59.3566 35.8788L59.9084 35.9253L61.3375 36.0473L61.5757 37.4589L61.6686 38.0049L62.2205 37.9701L63.6495 37.8771L64.0968 39.2423L64.2711 39.7651L64.8113 39.6489L66.2113 39.3468L66.862 40.6248L67.1118 41.1186L67.6288 40.9211L68.9707 40.4099L69.8014 41.5775L70.1209 42.0248L70.603 41.7576L71.852 41.0547L72.8454 42.0887L73.2288 42.4838L73.6645 42.1468L74.7972 41.2638L75.9358 42.1352L76.3715 42.4721L76.7491 42.0713L77.7366 41.0315L78.9914 41.7228L79.4736 41.99L79.7873 41.5369L80.6064 40.3576L81.9483 40.8572L82.4653 41.0489L82.7093 40.5551L83.3425 39.2713L84.7483 39.5618L85.2885 39.6721L85.457 39.1493L85.8927 37.7842L87.3217 37.8655L87.8736 37.8946L87.9607 37.3485L88.1873 35.9369L89.6163 35.8033L90.1682 35.751V35.1991L90.1914 33.7643L91.5856 33.4215L92.1201 33.2879L92.0445 32.7419L91.847 31.3244L93.1715 30.7726L93.6827 30.5634L93.5259 30.0348L93.1192 28.658L94.3449 27.9145L94.8155 27.6298L94.5831 27.1302L93.9732 25.8348L95.0769 24.917L95.501 24.5626L95.1989 24.1037L94.403 22.9128L94.3624 22.8954ZM93.2064 24.2141C91.7134 34.4439 82.2039 41.5253 71.9798 40.0265C61.7499 38.5394 54.6686 29.0356 56.1674 18.8058C57.6603 8.57588 67.164 1.49455 77.3939 2.9875C87.6238 4.48044 94.7051 13.9842 93.2122 24.2141H93.2064Z" fill="black"></path>
<path d="M74.687 2.36035C64.1667 2.36035 55.604 10.9172 55.604 21.4375C55.604 31.9579 64.1667 40.5205 74.687 40.5205C85.2073 40.5205 93.77 31.9579 93.77 21.4375C93.77 10.9172 85.2073 2.36035 74.687 2.36035ZM74.687 38.8417C65.0787 38.8417 57.2887 31.0516 57.2887 21.4433C57.2887 11.835 65.0787 4.045 74.687 4.045C84.2953 4.045 92.0853 11.835 92.0853 21.4433C92.0853 31.0516 84.2953 38.8417 74.687 38.8417Z" fill="black"></path>
<path d="M64.9219 10.8066H67.902V24.2838H64.9219V10.8066Z" fill="black"></path>
<path d="M69.9175 10.8066H75.9764V12.834H72.8976V16.1801H75.2445V18.2423H72.8976V22.2681H76.0113V24.2838H69.9233V10.8066H69.9175Z" fill="black"></path>
<path d="M77.1675 19.9908V15.1343C77.1675 12.3402 78.1318 10.6265 81.2106 10.6265C84.2895 10.6265 85.0853 12.224 85.0853 14.5186V15.6862H82.175V14.3385C82.175 13.5543 82.1575 12.7236 81.2106 12.7236C80.2637 12.7236 80.1766 13.5717 80.1766 14.385V20.7227C80.1766 21.6406 80.3276 22.3725 81.2106 22.3725C82.1401 22.3725 82.175 21.5418 82.175 20.7227V19.3111H85.0853V20.4787C85.0853 22.7734 84.2198 24.487 81.2106 24.487C78.2015 24.487 77.1675 22.7211 77.1675 19.9966V19.9908Z" fill="black"></path>
<path d="M64.6895 30.1569V27.7112C64.6895 26.3925 65.0496 25.4282 66.5484 25.4282C67.8438 25.4282 68.2679 26.0382 68.2679 27.1652C68.2679 27.2058 68.2737 27.2465 68.2737 27.2813H66.9666C66.9666 26.7411 66.9318 26.4797 66.56 26.4797C66.1882 26.4797 66.1069 26.7701 66.1069 27.8216V28.4199C66.2405 28.1876 66.5658 28.0598 66.9434 28.0423C68.0123 28.0191 68.4015 28.8847 68.4015 29.9826C68.4015 31.4 67.9774 32.3701 66.56 32.3701C65.2355 32.3701 64.6895 31.4349 64.6895 30.151V30.1569ZM67.0015 30.2091C67.0015 29.5527 66.9957 29.117 66.56 29.117C66.3509 29.117 66.1766 29.2681 66.1069 29.3842V30.488C66.1069 30.9469 66.1998 31.3535 66.5716 31.3535C66.9434 31.3535 66.9957 30.9701 66.9957 30.2091H67.0015Z" fill="black"></path>
<path d="M69.1914 30.4646V27.4032C69.1914 26.2182 69.7665 25.4165 71.0329 25.4165C72.2993 25.4165 72.8686 26.2182 72.8686 27.4032V30.4646C72.8686 31.5974 72.2354 32.3991 71.0329 32.3991C69.8304 32.3991 69.1914 31.6148 69.1914 30.4646ZM71.4512 30.4298V27.4381C71.4512 27.1651 71.4512 26.6597 71.0329 26.6597C70.6146 26.6597 70.6146 27.1592 70.6146 27.4381V30.4298C70.6146 30.6854 70.6495 31.1559 71.0329 31.1559C71.4163 31.1559 71.4512 30.6912 71.4512 30.4298Z" fill="black"></path>
<path d="M73.7632 30.1569V27.7112C73.7632 26.3925 74.1233 25.4282 75.6221 25.4282C76.9175 25.4282 77.3416 26.0382 77.3416 27.1652C77.3416 27.2058 77.3474 27.2465 77.3474 27.2813H76.0404C76.0404 26.7411 76.0055 26.4797 75.6337 26.4797C75.2619 26.4797 75.1806 26.7701 75.1806 27.8216V28.4199C75.3142 28.1876 75.6395 28.0598 76.0171 28.0423C77.086 28.0191 77.4752 28.8847 77.4752 29.9826C77.4752 31.4 77.0511 32.3701 75.6337 32.3701C74.3092 32.3701 73.7632 31.4349 73.7632 30.151V30.1569ZM76.0752 30.2091C76.0752 29.5527 76.0694 29.117 75.6337 29.117C75.4246 29.117 75.2503 29.2681 75.1806 29.3842V30.488C75.1806 30.9469 75.2736 31.3535 75.6453 31.3535C76.0171 31.3535 76.0694 30.9701 76.0694 30.2091H76.0752Z" fill="black"></path>
<path d="M78.2656 30.4646V27.4032C78.2656 26.2182 78.8407 25.4165 80.1071 25.4165C81.3735 25.4165 81.9428 26.2182 81.9428 27.4032V30.4646C81.9428 31.5974 81.3096 32.3991 80.1071 32.3991C78.9046 32.3991 78.2656 31.6148 78.2656 30.4646ZM80.5254 30.4298V27.4381C80.5254 27.1651 80.5254 26.6597 80.1071 26.6597C79.6889 26.6597 79.6889 27.1592 79.6889 27.4381V30.4298C79.6889 30.6854 79.7237 31.1559 80.1071 31.1559C80.4905 31.1559 80.5254 30.6912 80.5254 30.4298Z" fill="black"></path>
<path d="M83.5111 26.8919C83.2671 27.0255 82.843 27.1649 82.5874 27.2985V26.2645C82.8314 26.1367 83.5866 25.7475 83.8131 25.5151H84.9052V32.2712H83.5111V26.8919Z" fill="black"></path>
<path d="M61.3202 22.8197C62.0421 22.8197 62.6273 22.2345 62.6273 21.5126C62.6273 20.7908 62.0421 20.2056 61.3202 20.2056C60.5984 20.2056 60.0132 20.7908 60.0132 21.5126C60.0132 22.2345 60.5984 22.8197 61.3202 22.8197Z" fill="black"></path>
<path d="M88.1469 22.8197C88.8688 22.8197 89.454 22.2345 89.454 21.5126C89.454 20.7908 88.8688 20.2056 88.1469 20.2056C87.425 20.2056 86.8398 20.7908 86.8398 21.5126C86.8398 22.2345 87.425 22.8197 88.1469 22.8197Z" fill="black"></path>
</g>
<defs>
<clipPath id="clip0_2191_971">
<rect width="38.6829" height="38.6829" fill="white" transform="translate(0 2.16846)"></rect>
</clipPath>
<clipPath id="clip1_2191_971">
<rect width="42" height="41.8896" fill="white" transform="translate(53.687 0.564941)"></rect>
</clipPath>
</defs>
</svg>